<?xml version="1.0" standalone="no"?>
<!DOCTYPE svg PUBLIC "-//W3C//DTD SVG 20010904//EN"
 "http://www.w3.org/TR/2001/REC-SVG-20010904/DTD/svg10.dtd">
<svg version="1.0" xmlns="http://www.w3.org/2000/svg"
 width="600.000000pt" height="600.000000pt" viewBox="0 0 600.000000 600.000000"
 preserveAspectRatio="xMidYMid meet">
<metadata>
Created by potrace 1.14, written by Peter Selinger 2001-2017
</metadata>
<g transform="translate(0.000000,600.000000) scale(0.100000,-0.100000)"
fill="#000000" stroke="none">
<path d="M1006 4990 c-43 -8 -86 -50 -86 -84 0 -11 8 -29 18 -40 10 -12 29
-37 41 -57 19 -33 20 -37 5 -43 -11 -4 -15 -14 -12 -31 3 -14 1 -25 -3 -25 -5
0 -44 42 -86 93 -145 172 -166 187 -188 140 -5 -12 -26 -31 -46 -42 -20 -12
-40 -28 -43 -37 -10 -26 4 -66 39 -112 l33 -42 -19 -37 c-21 -42 -17 -73 15
-118 12 -16 31 -50 41 -75 18 -41 103 -176 173 -275 16 -22 43 -66 60 -98 18
-32 43 -73 56 -90 13 -18 38 -59 56 -92 18 -33 44 -77 57 -97 14 -20 32 -52
42 -70 10 -20 45 -51 95 -84 l78 -52 -52 -38 c-43 -31 -50 -41 -46 -60 6 -22
3 -24 -27 -24 -29 0 -39 -6 -62 -41 -17 -26 -25 -50 -22 -65 3 -20 0 -24 -19
-24 -28 0 -44 -27 -44 -73 0 -22 -6 -37 -15 -41 -18 -6 -20 -37 -4 -53 13 -13
-44 -27 -151 -39 -36 -3 -90 -17 -120 -29 -30 -13 -71 -26 -90 -29 -89 -17
-168 -40 -218 -62 -30 -13 -61 -24 -68 -24 -24 0 -15 -35 16 -65 17 -16 34
-43 38 -59 4 -16 14 -33 22 -37 26 -13 157 -39 197 -39 22 0 62 -7 89 -16 34
-11 98 -17 206 -19 178 -3 258 -17 258 -45 0 -28 28 -46 50 -32 10 6 21 8 25
4 10 -10 253 -30 381 -31 70 -1 130 -7 165 -17 42 -13 84 -15 193 -12 130 4
141 6 154 26 12 19 24 22 83 22 60 0 68 -2 74 -21 18 -57 179 -236 240 -266
16 -8 40 -28 53 -44 13 -16 28 -26 34 -23 5 3 20 -4 33 -16 13 -12 54 -31 92
-41 74 -21 87 -32 133 -119 44 -82 61 -109 107 -172 47 -64 51 -54 -47 -127
-59 -44 -217 -111 -273 -115 -35 -3 -106 -52 -321 -221 -124 -98 -358 -275
-430 -325 -72 -51 -76 -61 -75 -174 1 -96 18 -150 48 -154 15 -2 21 -8 17 -18
-12 -30 -28 -194 -22 -218 5 -19 23 -34 64 -55 69 -35 102 -69 111 -113 5 -22
13 -34 26 -36 11 -2 37 -8 58 -13 33 -9 37 -13 37 -42 0 -21 12 -46 35 -76 19
-24 35 -48 35 -53 0 -29 -34 -194 -41 -203 -5 -5 -9 -19 -9 -32 l0 -23 377 0
377 0 -31 33 c-36 38 -87 117 -79 124 2 3 28 20 58 39 37 24 60 33 78 29 21
-4 30 2 58 45 17 28 28 50 23 50 -4 0 -16 21 -26 48 -30 77 -62 122 -89 122
-13 0 -43 19 -72 45 -27 24 -57 45 -66 45 -14 0 -15 5 -8 30 5 16 16 42 26 58
15 27 24 30 98 41 44 6 108 11 142 11 52 0 74 7 160 49 55 28 110 59 123 70
33 29 71 26 119 -9 23 -17 49 -30 57 -30 14 0 16 -8 20 -100 1 -38 15 -70 29
-70 13 0 30 -46 41 -109 8 -45 18 -63 58 -98 26 -23 35 -40 40 -77 4 -26 13
-62 21 -79 8 -18 22 -53 31 -78 9 -26 34 -63 54 -83 36 -35 42 -37 92 -34 50
3 55 6 84 45 32 45 45 52 45 26 0 -9 16 -45 35 -80 l36 -63 560 0 560 0 -16
30 c-8 16 -15 34 -15 41 0 7 -20 47 -45 90 -25 43 -45 85 -45 92 0 23 -86 170
-113 194 -36 31 -32 105 9 156 16 20 35 37 42 37 30 0 10 66 -58 184 -38 68
-70 128 -70 135 0 7 -7 26 -16 42 -8 17 -17 38 -19 47 -7 32 -27 88 -50 137
-13 28 -29 70 -36 95 -7 25 -21 62 -31 82 -10 21 -18 44 -18 52 0 8 -34 72
-76 142 -42 71 -71 130 -65 132 18 6 12 36 -13 62 -78 82 -87 87 -162 89 -73
2 -164 -15 -164 -30 0 -5 -7 -9 -15 -9 -16 0 -65 88 -58 107 6 16 -13 26 -82
43 -58 16 -60 17 -78 65 -10 28 -29 95 -42 150 -13 55 -33 126 -43 158 l-19
57 22 0 c28 0 55 39 55 79 0 23 -5 30 -22 33 -21 3 -23 9 -26 66 l-3 62 50 0
c41 0 49 -3 45 -15 -10 -24 13 -42 62 -50 24 -3 69 -17 99 -31 47 -20 71 -24
160 -24 98 0 108 2 148 28 39 25 49 27 142 26 66 0 119 -6 155 -18 30 -9 93
-20 140 -23 60 -4 88 -11 96 -22 10 -13 18 -10 60 24 81 67 111 102 121 142
l9 38 102 -100 c147 -146 289 -276 320 -295 34 -21 182 -165 182 -177 0 -5
-17 -7 -37 -5 -26 2 -57 -5 -95 -23 -63 -29 -76 -41 -60 -57 8 -8 -9 -40 -54
-107 -36 -52 -63 -103 -61 -112 2 -9 -3 -21 -13 -27 -23 -14 -46 -97 -32 -115
19 -22 80 -207 71 -213 -10 -6 -10 -119 0 -229 l6 -70 37 -12 c86 -28 119 -65
218 -242 37 -66 46 -73 84 -66 l36 7 0 842 0 841 -78 50 c-121 77 -271 192
-321 244 -25 27 -71 66 -101 88 -103 74 -215 149 -231 155 -10 4 -19 24 -24
54 -4 26 -18 62 -31 79 -13 17 -52 85 -87 152 l-63 120 31 30 c29 28 68 94 70
118 0 6 5 19 11 30 6 11 19 54 29 95 16 65 17 83 6 149 -31 180 -75 266 -187
366 -167 148 -223 163 -469 126 -71 -10 -234 -58 -254 -75 -11 -8 -16 -7 -25
8 -42 71 -67 95 -103 102 -21 4 -51 13 -68 20 -16 7 -72 20 -123 29 -100 19
-273 17 -462 -5 -52 -6 -147 -14 -210 -19 -72 -6 -158 -20 -228 -39 -113 -30
-158 -51 -168 -77 -3 -8 -26 -17 -51 -21 -24 -3 -57 -17 -73 -30 -15 -13 -35
-24 -44 -24 -31 0 -114 -49 -144 -85 -31 -38 -52 -94 -52 -139 0 -19 -5 -26
-19 -26 -10 0 -52 -15 -92 -34 -114 -51 -112 -51 -134 -10 -11 20 -69 82 -130
137 -60 55 -209 200 -330 322 -346 350 -435 423 -536 439 -27 5 -54 24 -104
72 -64 61 -70 65 -92 53 -18 -10 -26 -10 -35 -1 -13 13 -15 13 -72 2z m2355
-2584 c30 -13 36 -13 51 1 15 13 20 9 55 -44 40 -60 45 -62 112 -52 18 3 28
-3 38 -21 18 -36 93 -217 93 -227 0 -7 -128 -36 -263 -60 -32 -6 -69 20 -60
43 3 7 -9 30 -26 51 -17 21 -31 45 -31 54 0 9 -7 19 -15 23 -20 7 -105 142
-105 166 0 13 7 20 20 20 12 0 22 9 26 24 5 22 18 30 60 35 7 0 27 -5 45 -13z"/>
</g>
</svg>
